hold_a_tea_cup coordinate motion generated from LLM joint_angles
version=1
nRows=40
nColumns=29
inDegrees=yes
endheader
time	elbow_flexion	pro_sup	rotaxis_auxprfem_r3	deviation	auxprrud_auxdrfem_r3	auxdrfem_auxdrrud_r1	MCP2_lateral	MCP2_flex	PIP_flex	DIP_flex	MCP2M_lateral	MCP2M_flex	MPIP_flex	MDIP_flex	RCP2M_lateral	RCP2M_flex	RPIP_flex	RDIP_flex	LCP2M_lateral	LCP2M_flex	LPIP_flex	LDIP_flex	thumb_abd	thumb_flex	TCP2M_lateral	TCP2M_flex	TCP2M2_flex	flexion
0.000000	0.000000	0.000000	0.000000	0.000000	0.000000	0.000000	0.000000	0.000000	0.000000	0.000000	0.000000	0.000000	0.000000	0.000000	0.000000	0.000000	0.000000	0.000000	0.000000	0.000000	0.000000	0.000000	0.000000	0.000000	0.000000	0.000000	0.000000	0.000000
0.006667	0.000000	0.000000	0.000000	0.104712	0.000000	0.000000	0.000000	0.418848	0.628273	0.837697	0.000000	0.418848	0.628273	0.837697	0.000000	1.884818	1.884818	1.884818	0.000000	1.884818	1.884818	1.884818	0.418848	0.942409	0.000000	0.209424	0.000000	0.209424
0.013333	0.000000	0.000000	0.000000	0.209378	0.000000	0.000000	0.000000	0.837513	1.256270	1.675026	0.000000	0.837513	1.256270	1.675026	0.000000	3.768809	3.768809	3.768809	0.000000	3.768809	3.768809	3.768809	0.837513	1.884404	0.000000	0.418757	0.000000	0.418757
0.020000	0.000000	0.000000	0.000000	0.313953	0.000000	0.000000	0.000000	1.255810	1.883716	2.511621	0.000000	1.255810	1.883716	2.511621	0.000000	5.651147	5.651147	5.651147	0.000000	5.651147	5.651147	5.651147	1.255810	2.825573	0.000000	0.627905	0.000000	0.627905
0.026667	0.000000	0.000000	0.000000	0.418389	0.000000	0.000000	0.000000	1.673557	2.510335	3.347114	0.000000	1.673557	2.510335	3.347114	0.000000	7.531006	7.531006	7.531006	0.000000	7.531006	7.531006	7.531006	1.673557	3.765503	0.000000	0.836778	0.000000	0.836778
0.033333	0.000000	0.000000	0.000000	0.522642	0.000000	0.000000	0.000000	2.090569	3.135854	4.181139	0.000000	2.090569	3.135854	4.181139	0.000000	9.407562	9.407562	9.407562	0.000000	9.407562	9.407562	9.407562	2.090569	4.703781	0.000000	1.045285	0.000000	1.045285
0.040000	0.000000	0.000000	0.000000	0.626666	0.000000	0.000000	0.000000	2.506665	3.759997	5.013329	0.000000	2.506665	3.759997	5.013329	0.000000	11.279991	11.279991	11.279991	0.000000	11.279991	11.279991	11.279991	2.506665	5.639996	0.000000	1.253332	0.000000	1.253332
0.046667	0.000000	0.000000	0.000000	0.730415	0.000000	0.000000	0.000000	2.921661	4.382491	5.843321	0.000000	2.921661	4.382491	5.843321	0.000000	13.147473	13.147473	13.147473	0.000000	13.147473	13.147473	13.147473	2.921661	6.573736	0.000000	1.460830	0.000000	1.460830
0.053333	0.000000	0.000000	0.000000	0.833844	0.000000	0.000000	0.000000	3.335375	5.003062	6.670750	0.000000	3.335375	5.003062	6.670750	0.000000	15.009187	15.009187	15.009187	0.000000	15.009187	15.009187	15.009187	3.335375	7.504594	0.000000	1.667687	0.000000	1.667687
0.060000	0.000000	0.000000	0.000000	0.936907	0.000000	0.000000	0.000000	3.747626	5.621439	7.495253	0.000000	3.747626	5.621439	7.495253	0.000000	16.864318	16.864318	16.864318	0.000000	16.864318	16.864318	16.864318	3.747626	8.432159	0.000000	1.873813	0.000000	1.873813
0.066667	0.000000	0.000000	0.000000	1.039558	0.000000	0.000000	0.000000	4.158234	6.237351	8.316468	0.000000	4.158234	6.237351	8.316468	0.000000	18.712052	18.712052	18.712052	0.000000	18.712052	18.712052	18.712052	4.158234	9.356026	0.000000	2.079117	0.000000	2.079117
0.073333	0.000000	0.000000	0.000000	1.141754	0.000000	0.000000	0.000000	4.567017	6.850526	9.134035	0.000000	4.567017	6.850526	9.134035	0.000000	20.551578	20.551578	20.551578	0.000000	20.551578	20.551578	20.551578	4.567017	10.275789	0.000000	2.283509	0.000000	2.283509
0.080000	0.000000	0.000000	0.000000	1.243449	0.000000	0.000000	0.000000	4.973798	7.460697	9.947595	0.000000	4.973798	7.460697	9.947595	0.000000	22.382090	22.382090	22.382090	0.000000	22.382090	22.382090	22.382090	4.973798	11.191045	0.000000	2.486899	0.000000	2.486899
0.086667	0.000000	0.000000	0.000000	1.344599	0.000000	0.000000	0.000000	5.378396	8.067595	10.756793	0.000000	5.378396	8.067595	10.756793	0.000000	24.202784	24.202784	24.202784	0.000000	24.202784	24.202784	24.202784	5.378396	12.101392	0.000000	2.689198	0.000000	2.689198
0.093333	0.000000	0.000000	0.000000	1.445159	0.000000	0.000000	0.000000	5.780636	8.670954	11.561272	0.000000	5.780636	8.670954	11.561272	0.000000	26.012862	26.012862	26.012862	0.000000	26.012862	26.012862	26.012862	5.780636	13.006431	0.000000	2.890318	0.000000	2.890318
0.100000	0.000000	0.000000	0.000000	1.545085	0.000000	0.000000	0.000000	6.180340	9.270510	12.360680	0.000000	6.180340	9.270510	12.360680	0.000000	27.811529	27.811529	27.811529	0.000000	27.811529	27.811529	27.811529	6.180340	13.905765	0.000000	3.090170	0.000000	3.090170
0.106667	0.000000	0.000000	0.000000	1.644333	0.000000	0.000000	0.000000	6.577333	9.865999	13.154666	0.000000	6.577333	9.865999	13.154666	0.000000	29.597998	29.597998	29.597998	0.000000	29.597998	29.597998	29.597998	6.577333	14.798999	0.000000	3.288666	0.000000	3.288666
0.113333	0.000000	0.000000	0.000000	1.742860	0.000000	0.000000	0.000000	6.971441	10.457161	13.942882	0.000000	6.971441	10.457161	13.942882	0.000000	31.371484	31.371484	31.371484	0.000000	31.371484	31.371484	31.371484	6.971441	15.685742	0.000000	3.485720	0.000000	3.485720
0.120000	0.000000	0.000000	0.000000	1.840623	0.000000	0.000000	0.000000	7.362491	11.043737	14.724982	0.000000	7.362491	11.043737	14.724982	0.000000	33.131210	33.131210	33.131210	0.000000	33.131210	33.131210	33.131210	7.362491	16.565605	0.000000	3.681246	0.000000	3.681246
0.126667	0.000000	0.000000	0.000000	1.937578	0.000000	0.000000	0.000000	7.750312	11.625468	15.500623	0.000000	7.750312	11.625468	15.500623	0.000000	34.876403	34.876403	34.876403	0.000000	34.876403	34.876403	34.876403	7.750312	17.438201	0.000000	3.875156	0.000000	3.875156
0.133333	0.000000	0.000000	0.000000	2.033683	0.000000	0.000000	0.000000	8.134733	12.202099	16.269466	0.000000	8.134733	12.202099	16.269466	0.000000	36.606298	36.606298	36.606298	0.000000	36.606298	36.606298	36.606298	8.134733	18.303149	0.000000	4.067366	0.000000	4.067366
0.140000	0.000000	0.000000	0.000000	2.128896	0.000000	0.000000	0.000000	8.515586	12.773379	17.031172	0.000000	8.515586	12.773379	17.031172	0.000000	38.320136	38.320136	38.320136	0.000000	38.320136	38.320136	38.320136	8.515586	19.160068	0.000000	4.257793	0.000000	4.257793
0.146667	0.000000	0.000000	0.000000	2.223176	0.000000	0.000000	0.000000	8.892704	13.339055	17.785407	0.000000	8.892704	13.339055	17.785407	0.000000	40.017166	40.017166	40.017166	0.000000	40.017166	40.017166	40.017166	8.892704	20.008583	0.000000	4.446352	0.000000	4.446352
0.153333	0.000000	0.000000	0.000000	2.316480	0.000000	0.000000	0.000000	9.265921	13.898881	18.531841	0.000000	9.265921	13.898881	18.531841	0.000000	41.696643	41.696643	41.696643	0.000000	41.696643	41.696643	41.696643	9.265921	20.848322	0.000000	4.632960	0.000000	4.632960
0.160000	0.000000	0.000000	0.000000	2.408768	0.000000	0.000000	0.000000	9.635073	14.452610	19.270147	0.000000	9.635073	14.452610	19.270147	0.000000	43.357831	43.357831	43.357831	0.000000	43.357831	43.357831	43.357831	9.635073	21.678915	0.000000	4.817537	0.000000	4.817537
0.166667	0.000000	0.000000	0.000000	2.500000	0.000000	0.000000	0.000000	10.000000	15.000000	20.000000	0.000000	10.000000	15.000000	20.000000	0.000000	45.000000	45.000000	45.000000	0.000000	45.000000	45.000000	45.000000	10.000000	22.500000	0.000000	5.000000	0.000000	5.000000
0.173333	0.000000	0.000000	0.000000	2.590135	0.000000	0.000000	0.000000	10.360540	15.540810	20.721080	0.000000	10.360540	15.540810	20.721080	0.000000	46.622431	46.622431	46.622431	0.000000	46.622431	46.622431	46.622431	10.360540	23.311215	0.000000	5.180270	0.000000	5.180270
0.180000	0.000000	0.000000	0.000000	2.679134	0.000000	0.000000	0.000000	10.716536	16.074804	21.433072	0.000000	10.716536	16.074804	21.433072	0.000000	48.224412	48.224412	48.224412	0.000000	48.224412	48.224412	48.224412	10.716536	24.112206	0.000000	5.358268	0.000000	5.358268
0.186667	0.000000	0.000000	0.000000	2.766958	0.000000	0.000000	0.000000	11.067831	16.601746	22.135662	0.000000	11.067831	16.601746	22.135662	0.000000	49.805239	49.805239	49.805239	0.000000	49.805239	49.805239	49.805239	11.067831	24.902620	0.000000	5.533915	0.000000	5.533915
0.193333	0.000000	0.000000	0.000000	2.853568	0.000000	0.000000	0.000000	11.414271	17.121407	22.828543	0.000000	11.414271	17.121407	22.828543	0.000000	51.364221	51.364221	51.364221	0.000000	51.364221	51.364221	51.364221	11.414271	25.682111	0.000000	5.707136	0.000000	5.707136
0.200000	0.000000	0.000000	0.000000	2.938926	0.000000	0.000000	0.000000	11.755705	17.633558	23.511410	0.000000	11.755705	17.633558	23.511410	0.000000	52.900673	52.900673	52.900673	0.000000	52.900673	52.900673	52.900673	11.755705	26.450336	0.000000	5.877853	0.000000	5.877853
0.206667	0.000000	0.000000	0.000000	3.022996	0.000000	0.000000	0.000000	12.091982	18.137973	24.183965	0.000000	12.091982	18.137973	24.183965	0.000000	54.413920	54.413920	54.413920	0.000000	54.413920	54.413920	54.413920	12.091982	27.206960	0.000000	6.045991	0.000000	6.045991
0.213333	0.000000	0.000000	0.000000	3.105739	0.000000	0.000000	0.000000	12.422956	18.634433	24.845911	0.000000	12.422956	18.634433	24.845911	0.000000	55.903300	55.903300	55.903300	0.000000	55.903300	55.903300	55.903300	12.422956	27.951650	0.000000	6.211478	0.000000	6.211478
0.220000	0.000000	0.000000	0.000000	3.187120	0.000000	0.000000	0.000000	12.748480	19.122720	25.496960	0.000000	12.748480	19.122720	25.496960	0.000000	57.368159	57.368159	57.368159	0.000000	57.368159	57.368159	57.368159	12.748480	28.684080	0.000000	6.374240	0.000000	6.374240
0.226667	0.000000	0.000000	0.000000	3.267103	0.000000	0.000000	0.000000	13.068412	19.602618	26.136824	0.000000	13.068412	19.602618	26.136824	0.000000	58.807854	58.807854	58.807854	0.000000	58.807854	58.807854	58.807854	13.068412	29.403927	0.000000	6.534206	0.000000	6.534206
0.233333	0.000000	0.000000	0.000000	3.345653	0.000000	0.000000	0.000000	13.382612	20.073918	26.765224	0.000000	13.382612	20.073918	26.765224	0.000000	60.221755	60.221755	60.221755	0.000000	60.221755	60.221755	60.221755	13.382612	30.110877	0.000000	6.691306	0.000000	6.691306
0.240000	0.000000	0.000000	0.000000	3.422736	0.000000	0.000000	0.000000	13.690942	20.536413	27.381884	0.000000	13.690942	20.536413	27.381884	0.000000	61.609240	61.609240	61.609240	0.000000	61.609240	61.609240	61.609240	13.690942	30.804620	0.000000	6.845471	0.000000	6.845471
0.246667	0.000000	0.000000	0.000000	3.498317	0.000000	0.000000	0.000000	13.993267	20.989900	27.986534	0.000000	13.993267	20.989900	27.986534	0.000000	62.969701	62.969701	62.969701	0.000000	62.969701	62.969701	62.969701	13.993267	31.484850	0.000000	6.996633	0.000000	6.996633
0.253333	0.000000	0.000000	0.000000	3.572363	0.000000	0.000000	0.000000	14.289454	21.434180	28.578907	0.000000	14.289454	21.434180	28.578907	0.000000	64.302541	64.302541	64.302541	0.000000	64.302541	64.302541	64.302541	14.289454	32.151271	0.000000	7.144727	0.000000	7.144727
0.260000	0.000000	0.000000	0.000000	3.644843	0.000000	0.000000	0.000000	14.579373	21.869059	29.158745	0.000000	14.579373	21.869059	29.158745	0.000000	65.607176	65.607176	65.607176	0.000000	65.607176	65.607176	65.607176	14.579373	32.803588	0.000000	7.289686	0.000000	7.289686
